<svg width="239" height="32" viewBox="0 0 239 32" fill="none" xmlns="http://www.w3.org/2000/svg">
<path d="M18.47 3.24L20.92 0L17.54 2.26C17.04 2.21 16.52 2.18 16 2.18C8.25999 2.18 1.98999 8.45 1.98999 16.19C1.98999 22.25 5.83999 27.41 11.22 29.37L13.11 18.59H8.13999C7.73999 18.59 7.50999 18.13 7.73999 17.81L18.47 3.24Z" fill="#02BDF4"/>
<path d="M20.82 3.03003L18.82 14.02H23.86C24.26 14.02 24.49 14.48 24.25 14.8L14.79 27.54L11.48 32L14.53 30.13C15.01 30.18 15.5 30.21 16 30.21C23.74 30.21 30.01 23.94 30.01 16.2C30.01 10.15 26.19 4.99003 20.82 3.03003Z" fill="#004CBA"/>
<path d="M26.99 12.94C26.28 10.54 24.81 8.43999 22.81 6.96999L23.79 6.60999C24.02 6.51999 24.14 6.26999 24.05 6.02999C23.96 5.79999 23.71 5.67999 23.47 5.76999L21.64 6.44999C21.41 6.53999 21.29 6.78999 21.38 7.02999L22.06 8.85999C22.15 9.08999 22.4 9.20999 22.64 9.11999C22.87 9.02999 22.99 8.77999 22.9 8.53999L22.71 8.01999C26.35 11.02 27.61 16.21 25.61 20.59C24.09 23.91 21.01 26.15 17.48 26.65C17.24 26.68 17.07 26.89 17.09 27.13C17.12 27.38 17.34 27.56 17.59 27.53C18.42 27.42 19.23 27.22 20 26.93C22.8 25.89 25.13 23.78 26.43 20.96C27.57 18.45 27.78 15.6 26.99 12.94Z" fill="white"/>
<path d="M10.05 6.39991C8.08999 7.58991 6.53999 9.32991 5.57999 11.4199C4.42999 13.9399 4.21999 16.7899 5.00999 19.4399C5.72999 21.8599 7.21999 23.9799 9.24999 25.4499L8.24999 25.8199C8.01999 25.9099 7.89999 26.1599 7.98999 26.3999C8.07999 26.6299 8.32999 26.7499 8.56999 26.6599L10.44 25.9599C10.67 25.8699 10.79 25.6199 10.7 25.3799L9.99999 23.5199C9.90999 23.2899 9.65999 23.1699 9.41999 23.2599C9.18999 23.3499 9.06999 23.5999 9.15999 23.8399L9.37999 24.4399C5.66999 21.4599 4.36999 16.2099 6.38999 11.7999C7.90999 8.46991 11 6.22991 14.54 5.73991C14.76 5.70991 14.92 5.53991 14.93 5.31991C14.94 5.03991 14.7 4.81991 14.43 4.84991C12.89 5.04991 11.4 5.57991 10.05 6.39991Z" fill="white"/>
<path d="M60.0267 10.3V25H57.2967V18.7H49.6947V25H46.9647V10.3H49.6947V16.369H57.2967V10.3H60.0267ZM76.7713 10.3L70.3873 22.165C69.8273 23.215 69.1553 24.006 68.3713 24.538C67.6013 25.056 66.7613 25.315 65.8513 25.315C65.1233 25.315 64.4023 25.161 63.6883 24.853L64.3603 22.711C64.9343 22.893 65.4103 22.984 65.7883 22.984C66.6703 22.984 67.3983 22.529 67.9723 21.619L68.2033 21.262L62.3443 10.3H65.2633L69.6103 18.931L74.0833 10.3H76.7713ZM91.2962 18.805H88.7762V25H86.1092V18.805H83.5892L79.8722 25H76.7222L81.3422 17.335L77.0372 10.3H79.9352L83.5262 16.453H86.1092V10.3H88.7762V16.453H91.3172L94.9292 10.3H97.8272L93.5432 17.356L98.1422 25H94.9922L91.2962 18.805ZM111.064 22.711V25H100.039V10.3H110.77V12.589H102.769V16.411H109.867V18.658H102.769V22.711H111.064ZM127.169 10.3V25H124.439V18.7H116.837V25H114.107V10.3H116.837V16.369H124.439V10.3H127.169ZM142.515 18.805H139.785V25H137.097V10.3H139.785V16.453H142.599L146.82 10.3H149.718L144.699 17.419L149.907 25H146.82L142.515 18.805ZM157.808 10.3C159.082 10.3 160.188 10.51 161.126 10.93C162.078 11.35 162.806 11.952 163.31 12.736C163.814 13.52 164.066 14.451 164.066 15.529C164.066 16.593 163.814 17.524 163.31 18.322C162.806 19.106 162.078 19.708 161.126 20.128C160.188 20.548 159.082 20.758 157.808 20.758H154.49V25H151.76V10.3H157.808ZM157.682 18.448C158.872 18.448 159.775 18.196 160.391 17.692C161.007 17.188 161.315 16.467 161.315 15.529C161.315 14.591 161.007 13.87 160.391 13.366C159.775 12.862 158.872 12.61 157.682 12.61H154.49V18.448H157.682ZM177.673 22.711V25H166.648V10.3H177.379V12.589H169.378V16.411H176.476V18.658H169.378V22.711H177.673ZM195.291 22.69V28.129H192.771V25H181.494V28.129H178.953L178.974 22.69H179.604C180.528 22.648 181.172 21.969 181.536 20.653C181.914 19.323 182.145 17.426 182.229 14.962L182.397 10.3H193.17V22.69H195.291ZM184.623 15.214C184.553 17.118 184.399 18.707 184.161 19.981C183.923 21.241 183.545 22.144 183.027 22.69H190.482V12.61H184.728L184.623 15.214ZM197.882 10.3H200.57V20.737L208.466 10.3H211.007V25H208.319V14.584L200.423 25H197.882V10.3ZM225.797 12.61H220.925V25H218.216V12.61H213.365V10.3H225.797V12.61Z" fill="#004CBA"/>
</svg>
