<svg width="47" height="36" viewBox="0 0 47 36" fill="none" xmlns="http://www.w3.org/2000/svg">
<g clip-path="url(#clip0_2_3076)">
<path d="M46.0739 35.5117V35.6043H46.1615C46.178 35.6045 46.1942 35.6004 46.2085 35.5925C46.2142 35.5885 46.2188 35.5831 46.2219 35.577C46.225 35.5708 46.2264 35.5639 46.2261 35.5571C46.2264 35.5503 46.225 35.5436 46.2219 35.5376C46.2188 35.5315 46.2142 35.5264 46.2085 35.5226C46.1944 35.5142 46.178 35.5101 46.1615 35.5108H46.0739V35.5117ZM46.1625 35.4462C46.2 35.444 46.2372 35.4546 46.2677 35.4763C46.28 35.4862 46.2897 35.4987 46.2961 35.5129C46.3025 35.5272 46.3054 35.5427 46.3046 35.5582C46.3052 35.5716 46.3028 35.5849 46.2977 35.5973C46.2926 35.6098 46.2849 35.6209 46.275 35.6302C46.2515 35.6503 46.222 35.6624 46.1909 35.6646L46.3084 35.7965H46.2179L46.1098 35.6656H46.0748V35.7965H45.9991V35.4465H46.1636L46.1625 35.4462ZM46.139 35.9173C46.1786 35.9177 46.218 35.9098 46.2543 35.8941C46.2894 35.8793 46.3213 35.858 46.3483 35.8314C46.3754 35.8049 46.397 35.7735 46.412 35.7389C46.4429 35.6656 46.4429 35.5832 46.412 35.5099C46.3968 35.4754 46.3752 35.444 46.3483 35.4173C46.3213 35.3908 46.2894 35.3695 46.2543 35.3546C46.2177 35.3398 46.1785 35.3324 46.139 35.3329C46.0987 35.3325 46.0588 35.3399 46.0215 35.3546C45.9856 35.3692 45.953 35.3905 45.9253 35.4173C45.8838 35.4593 45.8557 35.5124 45.8445 35.57C45.8333 35.6276 45.8396 35.6871 45.8626 35.7412C45.8769 35.7759 45.8983 35.8074 45.9253 35.8338C45.953 35.8606 45.9856 35.8819 46.0215 35.8965C46.0586 35.9121 46.0986 35.92 46.139 35.9196V35.9173ZM46.139 35.2487C46.2422 35.2485 46.3414 35.2884 46.4151 35.3597C46.4506 35.3939 46.4789 35.4347 46.4983 35.4798C46.5184 35.526 46.5287 35.5758 46.5287 35.6261C46.5287 35.6764 46.5184 35.7262 46.4983 35.7725C46.4784 35.8173 46.4502 35.858 46.4151 35.8925C46.379 35.9266 46.3371 35.954 46.2912 35.9735C46.2431 35.9936 46.1913 36.0039 46.139 36.0036C46.086 36.004 46.0336 35.9937 45.9848 35.9735C45.9384 35.9544 45.8961 35.927 45.86 35.8925C45.8249 35.8567 45.7971 35.8146 45.778 35.7685C45.7579 35.7223 45.7476 35.6725 45.7476 35.6222C45.7476 35.5719 45.7579 35.5221 45.778 35.4758C45.7974 35.4308 45.8257 35.39 45.8612 35.3558C45.8968 35.3207 45.9392 35.2932 45.986 35.2748C46.0348 35.2546 46.0872 35.2443 46.1401 35.2447L46.139 35.2487ZM10.1558 33.8968C10.1558 33.2293 10.5999 32.681 11.3258 32.681C12.0195 32.681 12.4877 33.2057 12.4877 33.8968C12.4877 34.5879 12.0195 35.1126 11.3258 35.1126C10.5999 35.1126 10.1558 34.5643 10.1558 33.8968ZM13.2784 33.8968V31.9973H12.4397V32.4601C12.1737 32.1181 11.7702 31.9036 11.2215 31.9036C10.1405 31.9036 9.29213 32.7384 9.29213 33.8977C9.29213 35.0571 10.14 35.8918 11.2215 35.8918C11.77 35.8918 12.1737 35.6771 12.4397 35.3354V35.7965H13.2775V33.8968H13.2784ZM41.6175 33.8968C41.6175 33.2293 42.0617 32.681 42.7879 32.681C43.4823 32.681 43.9497 33.2057 43.9497 33.8968C43.9497 34.5879 43.4823 35.1126 42.7879 35.1126C42.0619 35.1126 41.6175 34.5643 41.6175 33.8968ZM44.7412 33.8968V30.4727H43.9018V32.4601C43.6357 32.1181 43.2322 31.9036 42.6835 31.9036C41.6025 31.9036 40.7542 32.7384 40.7542 33.8977C40.7542 35.0571 41.602 35.8918 42.6835 35.8918C43.2322 35.8918 43.6357 35.6771 43.9018 35.3354V35.7965H44.7412V33.8968ZM23.688 32.6419C24.2285 32.6419 24.5756 32.9755 24.6642 33.563H22.6629C22.7525 33.0146 23.0906 32.6419 23.6882 32.6419H23.688ZM23.7049 31.9015C22.5746 31.9015 21.7838 32.7113 21.7838 33.8956C21.7838 35.1031 22.6063 35.8898 23.7611 35.8898C24.342 35.8898 24.874 35.747 25.3422 35.3576L24.9311 34.7457C24.6078 35.0002 24.1961 35.1429 23.809 35.1429C23.2685 35.1429 22.7764 34.8965 22.6554 34.2128H25.5194C25.5276 34.1101 25.536 34.0065 25.536 33.8954C25.5276 32.7115 24.784 31.9013 23.7044 31.9013L23.7049 31.9015ZM33.8306 33.8954C33.8306 33.2279 34.2747 32.6796 35.0007 32.6796C35.6944 32.6796 36.1625 33.2043 36.1625 33.8954C36.1625 34.5865 35.6944 35.1112 35.0007 35.1112C34.2747 35.1112 33.8304 34.5629 33.8304 33.8954H33.8306ZM36.953 33.8954V31.9973H36.1148V32.4601C35.8478 32.1181 35.4453 31.9036 34.8966 31.9036C33.8156 31.9036 32.9672 32.7384 32.9672 33.8977C32.9672 35.0571 33.8151 35.8918 34.8966 35.8918C35.4453 35.8918 35.8478 35.6771 36.1148 35.3354V35.7965H36.9533V33.8968L36.953 33.8954ZM29.0942 33.8954C29.0942 35.0474 29.9087 35.8895 31.1518 35.8895C31.7327 35.8895 32.1198 35.7623 32.5383 35.4367L32.1355 34.7693C31.8206 34.9921 31.49 35.1112 31.125 35.1112C30.4555 35.1031 29.9632 34.6265 29.9632 33.8954C29.9632 33.1643 30.4555 32.6879 31.125 32.6796C31.4891 32.6796 31.8197 32.7988 32.1355 33.0216L32.5383 32.3541C32.1191 32.0286 31.732 31.9013 31.1518 31.9013C29.9087 31.9013 29.0942 32.7432 29.0942 33.8954ZM39.9065 31.9013C39.4227 31.9013 39.1075 32.1241 38.8897 32.4577V31.9973H38.0585V35.7944H38.8981V33.6659C38.8981 33.0375 39.1724 32.6884 39.7206 32.6884C39.9002 32.6859 40.0784 32.7183 40.2452 32.784L40.5037 32.0057C40.318 31.9337 40.076 31.902 39.9061 31.902L39.9065 31.9013ZM17.425 32.2993C17.0215 32.0374 16.4655 31.902 15.8522 31.902C14.875 31.902 14.2459 32.3631 14.2459 33.1176C14.2459 33.7367 14.7143 34.1187 15.5767 34.2378L15.9729 34.2934C16.4328 34.357 16.65 34.4761 16.65 34.6906C16.65 34.9842 16.3445 35.1517 15.7708 35.1517C15.1899 35.1517 14.7707 34.9689 14.488 34.7545L14.0939 35.3983C14.5538 35.732 15.1347 35.8911 15.7638 35.8911C16.8777 35.8911 17.5232 35.3747 17.5232 34.6517C17.5232 33.9843 17.0152 33.6351 16.1757 33.516L15.7805 33.4595C15.4174 33.4133 15.1265 33.3413 15.1265 33.0868C15.1265 32.8092 15.4007 32.6421 15.8608 32.6421C16.3532 32.6421 16.8298 32.8249 17.0633 32.9677L17.4264 32.3002L17.425 32.2993ZM28.247 31.9027C27.7631 31.9027 27.448 32.1255 27.2311 32.4591V31.9973H26.3999V35.7944H27.2386V33.6659C27.2386 33.0375 27.5129 32.6884 28.0611 32.6884C28.2406 32.6859 28.4189 32.7183 28.5856 32.784L28.8441 32.0057C28.6585 31.9337 28.4164 31.902 28.2465 31.902L28.247 31.9027ZM21.0898 31.9973H19.7184V30.8454H18.8705V31.9973H18.0882V32.752H18.8705V34.4842C18.8705 35.3653 19.2178 35.89 20.21 35.89C20.574 35.89 20.9932 35.7789 21.2593 35.5964L21.017 34.8893C20.7667 35.0321 20.4925 35.1041 20.2744 35.1041C19.8551 35.1041 19.7184 34.8496 19.7184 34.4685V32.7527H21.0898V31.9973ZM8.55047 35.7954V33.4123C8.55047 32.5149 7.96955 31.911 7.03307 31.9029C6.54075 31.8948 6.03291 32.0457 5.67736 32.5785C5.41134 32.1574 4.9921 31.9029 4.40272 31.9029C3.99076 31.9029 3.58821 32.0221 3.27307 32.4668V31.9973H2.43365V35.7944H3.27965V33.689C3.27965 33.0299 3.65095 32.6796 4.22435 32.6796C4.7813 32.6796 5.06307 33.0371 5.06307 33.6807V35.794H5.91095V33.6886C5.91095 33.0294 6.29799 32.6791 6.85471 32.6791C7.4274 32.6791 7.70071 33.0366 7.70071 33.6803V35.7935L8.55047 35.7954Z" fill="#231F20"/>
<path d="M46.5521 23.1646V22.6094H46.4052L46.2353 22.9904L46.0663 22.6094H45.919V23.1646H46.0233V22.7463L46.1822 23.1073H46.2903L46.4492 22.7454V23.1646H46.5526H46.5521ZM45.6203 23.1646V22.7045H45.8083V22.6108H45.328V22.7045H45.516V23.1646H45.6194H45.6203Z" fill="#F79410"/>
<path d="M29.8584 25.5458H17.1482V3.05737H29.8586L29.8584 25.5458Z" fill="#FF5F00"/>
<path d="M17.954 14.3014C17.954 9.73964 20.1235 5.67599 23.5019 3.0572C20.9446 1.07199 17.7817 -0.00545423 14.5251 -0.000716866C6.50292 -0.000716866 0 6.40247 0 14.3014C0 22.2004 6.50292 28.6035 14.5251 28.6035C17.7818 28.6083 20.9448 27.5309 23.5021 25.5456C20.124 22.9273 17.954 18.8634 17.954 14.3014Z" fill="#EB001B"/>
<path d="M47.0058 14.3021C47.0058 22.2011 40.5029 28.6043 32.4807 28.6043C29.2237 28.609 26.0604 27.5316 23.5026 25.5464C26.8819 22.9276 29.0514 18.8642 29.0514 14.3021C29.0514 9.74014 26.8819 5.67672 23.5026 3.05793C26.0603 1.07278 29.2236 -0.00463877 32.4805 1.5013e-05C40.5027 1.5013e-05 47.0056 6.4032 47.0056 14.3021" fill="#F79E1B"/>
</g>
<defs>
<clipPath id="clip0_2_3076">
<rect width="47" height="36" fill="white"/>
</clipPath>
</defs>
</svg>
