<svg width="74" height="23" viewBox="0 0 74 23" fill="none" xmlns="http://www.w3.org/2000/svg">
<path d="M27.2875 22.4062L30.9875 1.59375H36.7687L33.1844 22.4062H27.2875Z" fill="#3C58BF"/>
<path d="M27.2875 22.4062L32.0281 1.59375H36.7687L33.1844 22.4062H27.2875Z" fill="#293688"/>
<path d="M54.1125 1.8249C52.9562 1.3624 51.1063 0.899902 48.7938 0.899902C43.0125 0.899902 38.85 3.79053 38.85 7.95303C38.85 11.0749 41.7406 12.6937 44.0531 13.7343C46.3656 14.7749 47.0594 15.4687 47.0594 16.3937C47.0594 17.7812 45.2094 18.4749 43.5906 18.4749C41.2781 18.4749 40.0063 18.128 38.0406 17.3187L37.2313 16.9718L36.4219 21.7124C37.8094 22.2905 40.3531 22.8687 43.0125 22.8687C49.1406 22.8687 53.1875 19.978 53.1875 15.5843C53.1875 13.1562 51.6844 11.3062 48.2156 9.80303C46.1344 8.7624 44.8625 8.18428 44.8625 7.14365C44.8625 6.21865 45.9031 5.29365 48.2156 5.29365C50.1813 5.29365 51.5688 5.64053 52.6094 6.10303L53.1875 6.33428L54.1125 1.8249Z" fill="#3C58BF"/>
<path d="M54.1125 1.8249C52.9562 1.3624 51.1063 0.899902 48.7938 0.899902C43.0125 0.899902 39.8906 3.79053 39.8906 7.95303C39.8906 11.0749 41.7406 12.6937 44.0531 13.7343C46.3656 14.7749 47.0594 15.4687 47.0594 16.3937C47.0594 17.7812 45.2094 18.4749 43.5906 18.4749C41.2781 18.4749 40.0063 18.128 38.0406 17.3187L37.2313 16.9718L36.4219 21.7124C37.8094 22.2905 40.3531 22.8687 43.0125 22.8687C49.1406 22.8687 53.1875 19.978 53.1875 15.5843C53.1875 13.1562 51.6844 11.3062 48.2156 9.80303C46.1344 8.7624 44.8625 8.18428 44.8625 7.14365C44.8625 6.21865 45.9031 5.29365 48.2156 5.29365C50.1813 5.29365 51.5688 5.64053 52.6094 6.10303L53.1875 6.33428L54.1125 1.8249Z" fill="#293688"/>
<path d="M64.0562 1.59375C62.6687 1.59375 61.6281 1.70937 61.05 3.09687L52.3781 22.4062H58.6219L59.7781 18.9375H67.1781L67.8719 22.4062H73.4219L68.5656 1.59375H64.0562ZM61.3969 15.4688C61.7437 14.4281 63.7094 9.34063 63.7094 9.34063C63.7094 9.34063 64.1719 8.06875 64.5187 7.25937L64.8656 9.225C64.8656 9.225 66.0219 14.4281 66.2531 15.5844H61.3969V15.4688Z" fill="#3C58BF"/>
<path d="M65.4437 1.59375C64.0562 1.59375 63.0156 1.70937 62.4375 3.09687L52.3781 22.4062H58.6219L59.7781 18.9375H67.1781L67.8719 22.4062H73.4219L68.5656 1.59375H65.4437ZM61.3969 15.4688C61.8594 14.3125 63.7094 9.34063 63.7094 9.34063C63.7094 9.34063 64.1719 8.06875 64.5187 7.25937L64.8656 9.225C64.8656 9.225 66.0219 14.4281 66.2531 15.5844H61.3969V15.4688Z" fill="#293688"/>
<path d="M16.65 16.1624L16.0719 13.1561C15.0313 9.68735 11.6781 5.87173 7.97815 4.02173L13.1813 22.5217H19.425L28.7906 1.70923H22.5469L16.65 16.1624Z" fill="#3C58BF"/>
<path d="M16.65 16.1624L16.0719 13.1561C15.0313 9.68735 11.6781 5.87173 7.97815 4.02173L13.1813 22.5217H19.425L28.7906 1.70923H23.7031L16.65 16.1624Z" fill="#293688"/>
<path d="M0.578125 1.59375L1.61875 1.825C9.01875 3.55938 14.1062 7.95312 16.0719 13.1562L13.9906 3.32812C13.6438 1.94062 12.6031 1.59375 11.3313 1.59375H0.578125Z" fill="#FFBC00"/>
<path d="M0.578125 1.59375C7.97813 3.32812 14.1062 7.8375 16.0719 13.0406L14.1062 4.83125C13.7594 3.44375 12.6031 2.63437 11.3313 2.63437L0.578125 1.59375Z" fill="#F7981D"/>
<path d="M0.578125 1.59375C7.97813 3.32812 14.1062 7.8375 16.0719 13.0406L14.6844 8.53125C14.3375 7.14375 13.875 5.75625 12.2563 5.17813L0.578125 1.59375Z" fill="#ED7C00"/>
</svg>
